<svg id="Capa_1" enable-background="new 0 0 512 512" height="512" viewBox="0 0 512 512" width="512" xmlns="http://www.w3.org/2000/svg" xmlns:xlink="http://www.w3.org/1999/xlink"><radialGradient id="SVGID_1_" cx="64.619" cy="274.818" gradientTransform="matrix(1 0 0 .706 0 80.811)" gradientUnits="userSpaceOnUse" r="92.886"><stop offset="0" stop-color="#f6e781"/><stop offset=".4756" stop-color="#f5e056"/><stop offset=".65" stop-color="#f4dd45"/><stop offset=".9873" stop-color="#f1d334"/><stop offset="1" stop-color="#f1d333"/></radialGradient><radialGradient id="SVGID_2_" cx="162.263" cy="93.166" gradientUnits="userSpaceOnUse" r="190.848"><stop offset="0" stop-color="#fffbe4"/><stop offset=".5544" stop-color="#f9efaf"/><stop offset=".6285" stop-color="#f8eea7"/><stop offset="1" stop-color="#f6e781"/></radialGradient><radialGradient id="SVGID_3_" cx="299.975" cy="449.789" gradientTransform="matrix(-.404 0 0 1 360.371 0)" gradientUnits="userSpaceOnUse" r="158.206"><stop offset="0" stop-color="#fff"/><stop offset=".0652" stop-color="#fdfdfd"/><stop offset=".5145" stop-color="#f1f1f4"/><stop offset=".9782" stop-color="#dfdde2"/></radialGradient><radialGradient id="SVGID_4_" cx="298.524" cy="402.771" gradientTransform="matrix(0 1 -.329 0 430.973 104.247)" gradientUnits="userSpaceOnUse" r="278.179"><stop offset=".1004" stop-color="#c6c1c8"/><stop offset=".5391" stop-color="#a298a5"/><stop offset="1" stop-color="#756e78"/></radialGradient><radialGradient id="SVGID_5_" cx="276.396" cy="860.53" gradientTransform="matrix(.931 0 0 .112 -2.224 404.599)" gradientUnits="userSpaceOnUse" r="95.599"><stop offset="0" stop-color="#c6c1c8"/><stop offset=".2432" stop-color="#dddbdf"/><stop offset=".4962" stop-color="#f1f1f4"/><stop offset=".888" stop-color="#fff"/></radialGradient><radialGradient id="SVGID_6_" cx="390.625" cy="252.272" gradientUnits="userSpaceOnUse" r="236.761"><stop offset="0" stop-color="#f4dd45"/><stop offset=".2362" stop-color="#f2d740"/><stop offset=".5521" stop-color="#edc631"/><stop offset=".5974" stop-color="#ecc32e"/><stop offset="1" stop-color="#e49824"/></radialGradient><linearGradient id="lg1"><stop offset=".0988" stop-color="#8b818e"/><stop offset=".5391" stop-color="#665e66"/><stop offset="1" stop-color="#454045"/></linearGradient><radialGradient id="SVGID_7_" cx="384.336" cy="247.105" gradientUnits="userSpaceOnUse" r="235.759" xlink:href="#lg1"/><radialGradient id="SVGID_8_" cx="386.66" cy="254.647" gradientUnits="userSpaceOnUse" r="232.719" xlink:href="#lg1"/><g><path d="m55.769 286.49c-11.874 20.566 2.968 46.273 26.716 46.273h34.032c-5.609 0 9.606-28.891 20.947-57.25l-81.32 10.327z" fill="url(#SVGID_1_)"/><path d="m273.016 0h-34.032c-10.389 0-20.779 5.141-26.716 15.424l-156.124 270.416h71.295c36.673-91.707 137.641-285.84 145.577-285.84z" fill="url(#SVGID_2_)"/><path d="m226.625 500.636h30.028l12.438-266.281-42.466 4.529z" fill="url(#SVGID_3_)"/><path d="m256.411 238.884h33.211v261.752h-33.211z" fill="url(#SVGID_4_)"/><path d="m256.382 512c51.225 0 92.751-5.088 92.751-11.364h-185.502c0 6.276 41.526 11.364 92.751 11.364z" fill="url(#SVGID_5_)"/><path d="m246.3 15.424-156.499 271.066c-11.874 20.566 2.968 46.273 26.716 46.273h312.999c23.747 0 38.589-25.707 26.716-46.273l-156.5-271.065c-11.874-20.566-41.558-20.566-53.432-.001z" fill="url(#SVGID_6_)"/><path d="m447.563 291.494-156.5-271.065c-3.767-6.524-10.514-10.419-18.047-10.419-7.534 0-14.28 3.895-18.048 10.419l-156.499 271.065c-3.767 6.525-3.767 14.315 0 20.84 3.767 6.524 10.513 10.419 18.047 10.419h312.999c7.534 0 14.28-3.895 18.047-10.419 3.768-6.525 3.768-14.315.001-20.84zm-8.669 15.835c-1.987 3.441-5.405 5.415-9.379 5.415h-312.999c-3.973 0-7.392-1.974-9.379-5.415s-1.987-7.389 0-10.831l156.5-271.064c1.987-3.441 5.405-5.415 9.379-5.415 3.973 0 7.392 1.974 9.379 5.415l156.5 271.065c1.986 3.441 1.986 7.388-.001 10.83z" fill="url(#SVGID_7_)"/><path d="m273.016 234.426c-10.908 0-19.869-8.613-20.302-19.512l-4.26-107.377c-.553-13.947 10.604-25.556 24.562-25.556 13.958 0 25.115 11.609 24.562 25.556l-4.26 107.377c-.433 10.899-9.394 19.512-20.302 19.512zm0 16.326c-11.913 0-21.571 9.658-21.571 21.571s9.658 21.571 21.571 21.571 21.571-9.658 21.571-21.571-9.658-21.571-21.571-21.571z" fill="url(#SVGID_8_)"/></g></svg>