<svg height="512" viewBox="0 0 64 64" width="512" xmlns="http://www.w3.org/2000/svg"><g id="avatar-sick-fever-temperature-thermometure"><path d="m44 18h-35a14.98 14.98 0 0 1 24.04-11.95 12 12 0 0 1 10.96 11.95z" fill="#806749"/><path d="m50 59v2h-40v-2a8 8 0 0 1 8-8h24a8 8 0 0 1 8 8z" fill="#3d9ae2"/><path d="m25 44h10a0 0 0 0 1 0 0v7a5 5 0 0 1 -5 5 5 5 0 0 1 -5-5v-7a0 0 0 0 1 0 0z" fill="#f0d0b4"/><path d="m16 18h28a0 0 0 0 1 0 0v16a14 14 0 0 1 -14 14 14 14 0 0 1 -14-14v-16a0 0 0 0 1 0 0z" fill="#f5e0cd"/><path d="m16 23v9h-2a2.006 2.006 0 0 1 -2-2v-5a2.006 2.006 0 0 1 2-2z" fill="#f0d0b4"/><path d="m48 25v5a2.006 2.006 0 0 1 -2 2h-2v-9h2a2.006 2.006 0 0 1 2 2z" fill="#f0d0b4"/><path d="m33 14c0-2.209 4-9 4-9s4 6.791 4 9a4 4 0 0 1 -8 0z" fill="#ff5023"/><path d="m35 40h-10a5 5 0 0 1 10 0z" fill="#fff"/><path d="m26.707 26.293-4-4-1.414 1.414 3.293 3.293-3.293 3.293 1.414 1.414 4-4a1 1 0 0 0 0-1.414z" fill="#3e3d42"/><path d="m37.293 31.707 1.414-1.414-3.293-3.293 3.293-3.293-1.414-1.414-4 4a1 1 0 0 0 0 1.414z" fill="#3e3d42"/><g fill="#ff6243"><path d="m8.04 48h2c0-.574.209-.816.682-1.309a3.548 3.548 0 0 0 0-5.386c-.473-.493-.682-.735-.682-1.309s.209-.813.681-1.3a3.6 3.6 0 0 0 1.239-2.696h-2c0 .572-.209.813-.681 1.306a3.544 3.544 0 0 0 0 5.383c.473.493.682.735.682 1.309s-.209.816-.682 1.309a3.61 3.61 0 0 0 -1.239 2.693z"/><path d="m7.96 23h-2c0 .572-.209.813-.681 1.306a3.544 3.544 0 0 0 0 5.383c.473.493.682.735.682 1.309s-.209.816-.682 1.309a3.61 3.61 0 0 0 -1.239 2.693h2c0-.574.209-.816.682-1.309a3.548 3.548 0 0 0 0-5.386c-.473-.493-.682-.735-.682-1.305s.209-.813.681-1.3a3.6 3.6 0 0 0 1.239-2.7z"/><path d="m5.96 46h-2c0 .572-.209.813-.681 1.306a3.544 3.544 0 0 0 0 5.383c.473.493.682.735.682 1.309s-.209.816-.682 1.309a3.61 3.61 0 0 0 -1.239 2.693h2c0-.574.209-.816.682-1.309a3.548 3.548 0 0 0 0-5.386c-.473-.493-.682-.735-.682-1.305s.209-.813.681-1.3a3.6 3.6 0 0 0 1.239-2.7z"/></g><path d="m61 47a6 6 0 1 1 -10-4.46v-20.54a4 4 0 0 1 8 0v20.54a6 6 0 0 1 2 4.46z" fill="#ff5023"/><path d="m58 47a3 3 0 1 1 -4-2.82v-19.18h2v19.18a3.01 3.01 0 0 1 2 2.82z" fill="#2488ff"/><circle cx="55" cy="47" fill="#ffda44" r="1"/></g></svg>