<svg id="Capa_1" enable-background="new 0 0 512 512" height="512" viewBox="0 0 512 512" width="512" xmlns="http://www.w3.org/2000/svg"><g><path d="m382.588 361.377-49.702-49.702c-5.859-5.859-15.352-5.859-21.211 0s-5.859 15.352 0 21.211l49.702 49.702c5.859 5.859 15.352 5.859 21.211 0s5.859-15.352 0-21.211z" fill="#dfe7f4"/><path d="m382.588 361.377-49.702-49.702c-5.859-5.859-15.352-5.859-21.211 0l70.913 70.913c5.859-5.859 5.859-15.352 0-21.211z" fill="#c5d3dd"/><path d="m195 0c-53.76 0-102.51 21.87-137.82 57.18s-57.18 84.06-57.18 137.82c0 107.52 87.48 195 195 195 53.76 0 102.51-21.87 137.82-57.18s57.18-84.06 57.18-137.82c0-107.52-87.48-195-195-195z" fill="#6d1d40"/><path d="m195 0c-53.76 0-102.51 21.87-137.82 57.18l275.64 275.64c35.31-35.31 57.18-84.06 57.18-137.82 0-107.52-87.48-195-195-195z" fill="#58072a"/><path d="m359.24 180c-7.613-83.969-78.321-150-164.24-150-45.504 0-86.389 18.854-116.246 48.754-26.52 26.554-44.413 61.748-47.994 101.246l32.82 30.016-27.184 29.984c12.609 44.359 43.284 81.097 83.604 101.785h150c15.403-7.903 28.801-18.748 40.919-30.866 19.605-19.603 34.894-43.506 42.686-70.919l-27.189-29.925z" fill="#f0f7ff"/><path d="m353.604 240-27.189-29.925 32.825-30.075c-7.613-83.969-78.321-150-164.24-150-45.504 0-86.389 18.854-116.246 48.754l232.165 232.165c19.605-19.604 34.894-43.506 42.685-70.919z" fill="#dfe7f4"/><path d="m195 180c-33.091 0-60-26.909-60-60s26.909-60 60-60 60 26.909 60 60-26.909 60-60 60z" fill="#fbb5ae"/><path d="m507.605 443.973-103.806-103.807c-5.83-5.83-15.293-5.859-21.182-.029l-21.24 21.24-21.211 21.211c-5.859 5.859-5.859 15.352 0 21.211l103.807 103.807c5.859 5.859 15.352 5.859 21.211 0l21.211-21.211 21.211-21.211c2.93-2.93 4.395-6.768 4.395-10.605s-1.466-7.677-4.396-10.606z" fill="#ec577d"/><path d="m403.799 340.166c-5.83-5.83-15.293-5.859-21.182-.029l-21.24 21.24 125.018 125.018 21.211-21.211c2.93-2.93 4.395-6.768 4.395-10.605s-1.465-7.676-4.395-10.605z" fill="#e72d5c"/><path d="m359.24 180h-179.24-149.24c-.449 4.948-.76 9.937-.76 15 0 15.615 2.324 30.672 6.396 45h83.604v101.785c22.533 11.559 47.983 18.215 75 18.215s52.467-6.656 75-18.215v-71.785-30h83.604c4.072-14.328 6.396-29.385 6.396-45 0-5.063-.311-10.052-.76-15z" fill="#fdccbd"/><path d="m353.604 240c4.072-14.328 6.396-29.385 6.396-45 0-5.063-.311-10.052-.76-15h-179.24l90 90v-30z" fill="#fbb5ae"/><g fill="#9cdd05"><circle cx="164.999" cy="285.011" r="15"/><circle cx="209.999" cy="255.011" r="15"/><circle cx="209.999" cy="315.011" r="15"/></g></g></svg>